# xmcd CD database file
#
# Track frame offsets:
#	150
#	13664
#	28459
#	39034
#	53699
#	65521
#	79472
#	90621
#	101532
#	116072
#	128365
#	142113
#
# Disc length: 2074 seconds
#
# Revision: 1
# Processed by: cddbd v1.5.2PL0 Copyright (c) Steve Scherf et al.
# Submitted via: CDex 1.77
#
DISCID=9d08180c
DTITLE=Various Artist - All That Jazz [CD3)
DYEAR=1999
DGENRE=Jazz
TTITLE0=Bing Crosby/Where The Blue Of The Night
TTITLE1=Fats Waller and His Rhythm/Honey Hush
TTITLE2=Marilyn Monroe/A Fine Romance
TTITLE3=Artie Shaw/Begin The Beguine
TTITLE4=The Mills Brothers/Paper Doll
TTITLE5=Josephine Baker/There's A Small Hotel
TTITLE6=Judy Garland With Gene Kelly/For Me And My Gal
TTITLE7=The Ink Spots/It's A Sin To Tell A Lie
TTITLE8=Ella Fitzgerald/Holiday In Harlem
TTITLE9=Louis Armstrong/When The Saints Go Marching In
TTITLE10=Nelson Eddy/Rose Marie
TTITLE11=Count Basie/One O'Clock Jump
EXTD=YEAR: 1999
EXTT0=
EXTT1=
EXTT2=
EXTT3=
EXTT4=
EXTT5=
EXTT6=
EXTT7=
EXTT8=
EXTT9=
EXTT10=
EXTT11=
PLAYORDER=
